<?xml version="1.0" encoding="UTF-8" standalone="no"?>
<svg
   xmlns:dc="http://purl.org/dc/elements/1.1/"
   xmlns:cc="http://creativecommons.org/ns#"
   xmlns:rdf="http://www.w3.org/1999/02/22-rdf-syntax-ns#"
   xmlns:svg="http://www.w3.org/2000/svg"
   xmlns="http://www.w3.org/2000/svg"
   xmlns:sodipodi="http://sodipodi.sourceforge.net/DTD/sodipodi-0.dtd"
   xmlns:inkscape="http://www.inkscape.org/namespaces/inkscape"
   width="720"
   height="720"
   overflow="hidden"
   version="1.1"
   id="svg46"
   sodipodi:docname="ggnormviolin.svg"
   inkscape:version="1.0.2-2 (e86c870879, 2021-01-15)">
  <metadata
     id="metadata50">
    <rdf:RDF>
      <cc:Work
         rdf:about="">
        <dc:format>image/svg+xml</dc:format>
        <dc:type
           rdf:resource="http://purl.org/dc/dcmitype/StillImage" />
        <dc:title></dc:title>
      </cc:Work>
    </rdf:RDF>
  </metadata>
  <sodipodi:namedview
     pagecolor="#ffffff"
     bordercolor="#666666"
     borderopacity="1"
     objecttolerance="10"
     gridtolerance="10"
     guidetolerance="10"
     inkscape:pageopacity="0"
     inkscape:pageshadow="2"
     inkscape:window-width="1920"
     inkscape:window-height="1017"
     id="namedview48"
     showgrid="false"
     inkscape:zoom="1.1805556"
     inkscape:cx="360"
     inkscape:cy="360"
     inkscape:window-x="-8"
     inkscape:window-y="-8"
     inkscape:window-maximized="1"
     inkscape:current-layer="g44" />
  <defs
     id="defs24">
    <filter
       id="fx0"
       x="-10%"
       y="-10%"
       width="120%"
       height="120%"
       filterUnits="userSpaceOnUse"
       primitiveUnits="userSpaceOnUse">
      <feComponentTransfer
         color-interpolation-filters="sRGB"
         id="feComponentTransfer10">
        <feFuncR
           type="discrete"
           tableValues="0 0"
           id="feFuncR2" />
        <feFuncG
           type="discrete"
           tableValues="0 0"
           id="feFuncG4" />
        <feFuncB
           type="discrete"
           tableValues="0 0"
           id="feFuncB6" />
        <feFuncA
           type="linear"
           slope="0.690196"
           intercept="0"
           id="feFuncA8" />
      </feComponentTransfer>
      <feGaussianBlur
         stdDeviation="0.945295 0.945295"
         id="feGaussianBlur12" />
    </filter>
    <clipPath
       id="clip1">
      <rect
         x="0"
         y="0"
         width="720"
         height="720"
         id="rect15" />
    </clipPath>
    <clipPath
       id="clip2">
      <rect
         x="1"
         y="0"
         width="647"
         height="133"
         id="rect18" />
    </clipPath>
    <clipPath
       id="clip3">
      <rect
         x="0"
         y="0"
         width="649"
         height="133"
         id="rect21" />
    </clipPath>
  </defs>
  <g
     clip-path="url(#clip1)"
     id="g44">
    <rect
       x="0"
       y="0"
       width="720"
       height="720"
       fill="#FFFFFF"
       fill-opacity="0"
       id="rect26" />
    <path
       d="M0 360C-4.58328e-14 161.177 161.177-4.58328e-14 360-9.16656e-14 558.823-1.83331e-13 720 161.177 720 360 720 558.823 558.823 720 360 720 161.177 720-2.29164e-13 558.823 0 360Z"
       fill-rule="evenodd"
       id="path28" />
    <path
       d="M430.213 313.305 430.203 312.551 430.182 311.796 430.147 311.046 430.092 310.291 430.027 309.536 429.947 308.781 429.852 308.031 429.747 307.276 429.621 306.522 429.481 305.772 429.329 305.017 429.164 304.262 428.979 303.513 428.784 302.757 428.577 302.002 428.352 301.249 428.116 300.499 427.861 299.744 427.595 298.989 427.319 298.239 427.024 297.484 426.717 296.729 426.396 295.974 426.061 295.225 425.714 294.47 425.353 293.715 424.982 292.965 424.596 292.211 424.194 291.456 423.783 290.7 423.357 289.951 422.915 289.197 422.47 288.442 422.003 287.692 421.531 286.937 421.04 286.182 420.544 285.427 420.032 284.677 419.511 283.922 418.974 283.168 418.432 282.419 417.876 281.664 417.309 280.909 416.727 280.154 416.141 279.404 415.538 278.649 414.932 277.895 414.31 277.145 413.678 276.39 413.041 275.635 412.389 274.88 411.732 274.13 411.066 273.375 410.388 272.62 409.701 271.872 409.004 271.117 408.301 270.362 407.59 269.612 406.867 268.857 406.141 268.102 405.404 267.347 404.662 266.597 403.909 265.843 403.152 265.088 402.384 264.338 401.613 263.583 400.835 262.828 400.048 262.073 399.255 261.323 398.458 260.568 397.656 259.815 396.848 259.065 395.213 257.555 394.386 256.8 393.558 256.05 392.726 255.295 391.882 254.541 391.04 253.791 389.345 252.281 388.488 251.526 387.63 250.776 386.773 250.021 385.905 249.266 385.037 248.518 384.17 247.763 382.424 246.253 381.547 245.503 379.791 243.993 378.909 243.243 377.144 241.734 376.257 240.979 375.373 240.229 374.486 239.474 373.603 238.719 372.716 237.97 371.828 237.215 370.945 236.461 370.057 235.711 369.17 234.956 367.405 233.446 366.523 232.696 365.639 231.941 364.761 231.187 363.879 230.437 363.006 229.682 362.129 228.927 361.256 228.172 360.383 227.423 358.649 225.913 357.786 225.164 356.928 224.409 356.066 223.654 355.213 222.899 354.361 222.149 352.666 220.639 351.823 219.889 350.986 219.135 349.32 217.625 348.497 216.876 346.853 215.366 346.04 214.616 344.426 213.107 343.628 212.352 342.831 211.602 342.038 210.847 341.257 210.092 340.473 209.342 339.697 208.587 338.929 207.833 338.163 207.084 336.648 205.574 335.9 204.819 335.158 204.069 334.421 203.314 333.688 202.559 332.962 201.81 332.239 201.055 330.815 199.545 330.113 198.795 329.416 198.04 328.729 197.285 328.042 196.535 327.365 195.782 326.693 195.027 326.026 194.272 325.369 193.522 324.712 192.767 324.065 192.012 323.428 191.262 322.791 190.507 322.165 189.753 321.542 188.998 320.931 188.248 320.318 187.493 319.716 186.738 319.126 185.988 318.534 185.233 317.951 184.48 317.375 183.725 316.808 182.975 316.246 182.22 315.69 181.465 315.138 180.715 314.596 179.96 314.06 179.205 313.528 178.451 313.002 177.701 312.486 176.946 311.973 176.191 311.473 175.441 310.976 174.686 310.484 173.931 309.998 173.182 309.516 172.428 309.045 171.673 308.579 170.918 308.122 170.168 307.666 169.413 307.219 168.658 306.778 167.908 306.342 167.153 305.915 166.399 305.494 165.644 305.073 164.895 304.26 163.385 303.865 162.635 303.468 161.88 303.082 161.126 302.702 160.371 302.325 159.621 301.592 158.111 301.237 157.361 300.886 156.606 300.539 155.851 300.198 155.097 299.863 154.348 299.532 153.593 299.206 152.837 298.885 152.088 298.263 150.578 297.962 149.824 297.661 149.074 297.08 147.564 296.798 146.814 296.517 146.059 295.975 144.549 295.71 143.799 295.199 142.291 294.948 141.541 294.702 140.786 294.462 140.031 294.226 139.281 293.765 137.772 293.544 137.017 293.323 136.267 293.107 135.512 292.897 134.757 292.691 134.007 292.486 133.252 292.094 131.744 291.903 130.994 291.713 130.239 291.532 129.484 291.352 128.734 291.001 127.224 290.835 126.47 290.669 125.72 290.505 124.965 290.348 124.21 290.193 123.46 290.038 122.705 289.747 121.195 289.601 120.445 289.461 119.692 289.326 118.937 289.19 118.187 289.061 117.432 288.809 115.922 288.684 115.172 288.569 114.418 288.448 113.663 288.333 112.913 288.112 111.403 288.007 110.654 287.901 109.898 287.701 108.39 287.606 107.64 287.415 106.13 287.325 105.38 287.24 104.625 287.149 103.87 287.069 103.116 286.983 102.366 286.904 101.611 286.828 100.856 286.749 100.106 286.678 99.3517 286.603 98.5968 286.533 97.842 286.462 97.0922 286.332 95.5826 286.267 94.8327 286.202 94.078 286.141 93.3233 286.086 92.5684 286.026 91.8186 285.915 90.3091 285.86 89.5593 285.71 87.2948 285.66 86.5451 285.57 85.0355 285.525 84.2857 285.48 83.5309 285.399 82.0212 285.359 81.2714 285.32 80.5165 285.284 79.7618 285.244 79.012 285.173 77.5024 285.144 76.7526 285.108 75.9978 285.049 74.4882 285.018 73.7385 284.957 72.2289 284.933 71.479 284.902 70.7242 284.852 69.2145 284.828 68.4649 284.807 67.7099 284.783 66.9553 284.762 66.2055 284.737 65.4507 284.697 63.941 284.678 63.1912 284.637 61.6816 284.622 60.9318 284.602 60.177 284.586 59.4222 284.567 58.6674 284.552 57.9176 284.521 56.408 284.507 55.6583 284.491 54.9034 284.481 54.1487 284.466 53.3938 284.452 52.644 284.431 51.1343 284.416 50.3847 284.386 48.1201 284.376 47.3704 284.357 45.8608 284.346 45.111 284.326 43.6014 284.321 42.8516 284.301 41.342 284.296 40.5872 284.286 39.8374 284.281 39.0826 284.271 38.3278 284.266 37.5781 284.255 36.0685 284.246 35.3135 284.241 34.5638 284.231 33.0542 284.226 32.3045 284.21 30.0399 284.205 29.2902 284.196 27.7806 284.196 27.0308 284.181 24.7664 284.176 24.0166 284.176 23.2618 284.171 22.507 284.165 21.7572 284.165 21.0024 284.16 20.2476 284.16 19.4927 284.155 18.743 284.155 17.9883 284.15 17.2333 284.15 16.4837 284.145 15.7287 284.145 14.974 284.141 14.2192 284.141 13.4693 284.136 12.7146 284.136 11.9597 284.036 11.9597 284.036 13.4693 284.031 14.2192 284.031 14.974 284.025 15.7287 284.025 16.4837 284.02 17.2333 284.02 17.9883 284.015 18.743 284.015 19.4927 284.005 21.0024 284.005 21.7572 284 22.507 284 23.2618 283.995 24.0166 283.99 24.7664 283.984 25.5212 283.984 26.276 283.98 27.0308 283.975 27.7806 283.965 29.2902 283.96 30.0399 283.945 32.3045 283.939 33.0542 283.929 34.5638 283.925 35.3135 283.915 36.8232 283.905 37.5781 283.9 38.3278 283.894 39.0826 283.884 39.8374 283.879 40.5872 283.86 42.0968 283.855 42.8516 283.844 43.6014 283.834 44.3562 283.829 45.111 283.82 45.8608 283.799 47.3704 283.789 48.1201 283.779 48.875 283.765 49.6297 283.755 50.3847 283.744 51.1343 283.729 51.8893 283.719 52.644 283.704 53.3938 283.694 54.1487 283.663 55.6583 283.649 56.408 283.618 57.9176 283.604 58.6674 283.589 59.4222 283.568 60.177 283.554 60.9318 283.534 61.6816 283.494 63.1912 283.473 63.941 283.413 66.2055 283.389 66.9553 283.368 67.7099 283.342 68.4649 283.318 69.2145 283.242 71.479 283.213 72.2289 283.182 72.9836 283.158 73.7385 283.127 74.4882 283.092 75.2431 283.032 76.7526 282.997 77.5024 282.926 79.012 282.892 79.7618 282.811 81.2714 282.771 82.0212 282.692 83.5309 282.645 84.2857 282.6 85.0355 282.51 86.5451 282.46 87.2948 282.416 88.0497 282.365 88.8044 282.31 89.5593 282.26 90.3091 282.205 91.0638 282.145 91.8186 282.089 92.5684 281.969 94.078 281.903 94.8327 281.843 95.5826 281.779 96.3374 281.708 97.0922 281.638 97.842 281.498 99.3517 281.422 100.106 281.347 100.856 281.187 102.366 281.106 103.116 280.935 104.625 280.845 105.38 280.755 106.13 280.666 106.885 280.569 107.64 280.469 108.39 280.269 109.898 280.164 110.654 280.058 111.403 279.837 112.913 279.722 113.663 279.607 114.418 279.487 115.172 279.366 115.922 279.241 116.677 278.98 118.187 278.845 118.937 278.709 119.692 278.569 120.445 278.428 121.195 278.283 121.95 277.982 123.46 277.827 124.21 277.506 125.72 277.341 126.47 277.17 127.224 276.818 128.734 276.638 129.484 276.457 130.239 276.272 130.994 276.076 131.744 275.886 132.497 275.686 133.252 275.479 134.007 275.274 134.757 275.063 135.512 274.847 136.267 274.632 137.017 274.181 138.526 273.945 139.281 273.71 140.031 273.468 140.786 273.223 141.541 272.972 142.291 272.721 143.046 272.461 143.799 272.195 144.549 271.929 145.304 271.377 146.814 271.091 147.564 270.806 148.319 270.509 149.074 270.214 149.824 269.601 151.333 269.286 152.088 268.965 152.837 268.644 153.593 268.312 154.348 267.977 155.097 267.636 155.851 267.291 156.606 266.934 157.361 266.578 158.111 266.217 158.866 265.846 159.621 265.47 160.371 265.089 161.126 264.702 161.88 264.311 162.635 263.91 163.385 263.508 164.139 263.098 164.895 262.682 165.644 262.26 166.399 261.829 167.153 261.393 167.908 260.951 168.658 260.504 169.413 260.054 170.168 259.591 170.918 259.125 171.673 258.654 172.428 258.178 173.182 257.691 173.931 257.2 174.686 256.699 175.441 256.197 176.191 255.685 176.946 255.169 177.701 254.642 178.451 254.116 179.205 253.579 179.96 253.032 180.715 252.485 181.465 251.929 182.22 251.367 182.975 250.796 183.725 250.219 184.48 249.638 185.233 249.051 185.988 248.454 186.738 247.852 187.493 247.245 188.248 246.628 188.998 246.006 189.753 245.379 190.507 244.748 191.262 244.106 192.012 243.459 192.767 242.806 193.522 242.145 194.272 241.478 195.027 240.806 195.782 240.128 196.535 239.447 197.285 238.755 198.04 238.057 198.795 237.355 199.545 236.648 200.3 235.931 201.055 235.209 201.81 234.487 202.559 233.754 203.314 233.017 204.069 232.27 204.819 231.523 205.574 230.77 206.329 230.008 207.084 229.246 207.833 228.474 208.587 227.697 209.342 226.919 210.092 226.132 210.847 225.34 211.602 224.548 212.352 222.943 213.861 222.13 214.616 221.317 215.366 220.5 216.121 219.678 216.876 218.85 217.625 217.185 219.135 216.348 219.889 215.505 220.639 214.662 221.394 213.81 222.149 212.957 222.899 212.105 223.654 211.247 224.409 210.384 225.164 209.521 225.913 207.787 227.423 206.914 228.172 205.169 229.682 204.291 230.437 203.414 231.187 202.531 231.941 201.654 232.696 200.771 233.446 199.884 234.201 199 234.956 198.113 235.711 197.23 236.461 195.454 237.97 194.572 238.719 192.797 240.229 191.914 240.979 191.032 241.734 190.144 242.489 189.261 243.243 188.384 243.993 187.501 244.748 186.623 245.503 185.746 246.253 184.001 247.763 183.133 248.518 182.266 249.266 180.54 250.776 179.683 251.526 177.978 253.036 177.13 253.791 176.288 254.541 175.45 255.295 174.617 256.05 173.785 256.8 172.14 258.31 171.328 259.065 170.515 259.815 169.713 260.568 168.915 261.323 168.123 262.073 166.558 263.583 165.786 264.338 165.024 265.088 164.262 265.843 163.514 266.597 162.767 267.347 161.303 268.857 160.586 269.612 159.874 270.362 159.166 271.117 158.474 271.872 157.787 272.62 157.11 273.375 156.438 274.13 155.781 274.88 155.129 275.635 154.492 276.39 153.86 277.145 153.244 277.895 152.632 278.649 152.03 279.404 151.443 280.154 150.866 280.909 150.3 281.664 149.743 282.419 149.197 283.168 148.66 283.922 148.138 284.677 147.627 285.427 147.13 286.182 146.644 286.937 146.167 287.692 145.706 288.442 145.255 289.197 144.818 289.951 144.392 290.7 143.981 291.456 143.58 292.211 143.193 292.965 142.817 293.715 142.456 294.47 142.11 295.225 141.774 295.974 141.453 296.729 141.147 297.484 140.857 298.239 140.576 298.989 140.31 299.744 140.059 300.499 139.818 301.249 139.598 302.002 139.387 302.757 139.192 303.513 139.011 304.262 138.84 305.017 138.69 305.772 138.55 306.522 138.429 307.276 138.319 308.031 138.224 308.781 138.143 309.536 138.078 310.291 138.028 311.046 137.993 311.796 137.968 312.551 137.963 313.305 137.968 314.054 137.993 314.809 138.028 315.564 138.078 316.319 138.143 317.069 138.224 317.824 138.319 318.579 138.429 319.328 138.55 320.083 138.69 320.838 138.84 321.593 139.011 322.343 139.192 323.098 139.387 323.853 139.598 324.603 139.818 325.356 140.059 326.111 140.31 326.866 140.576 327.616 140.857 328.371 141.147 329.126 141.453 329.876 141.774 330.63 142.11 331.385 142.456 332.14 142.817 332.89 143.193 333.645 143.58 334.4 143.981 335.15 144.392 335.904 144.818 336.658 145.255 337.413 145.706 338.163 146.167 338.918 146.644 339.673 147.13 340.423 147.627 341.178 148.138 341.933 148.66 342.682 149.197 343.437 149.743 344.192 150.3 344.947 150.866 345.696 151.443 346.452 152.03 347.206 152.632 347.956 153.244 348.71 153.86 349.465 154.492 350.22 155.129 350.97 155.781 351.725 156.438 352.48 157.11 353.23 157.787 353.984 158.474 354.739 159.166 355.494 159.874 356.243 160.586 356.998 161.303 357.753 162.035 358.503 162.767 359.258 164.262 360.767 165.024 361.517 165.786 362.272 166.558 363.027 167.341 363.777 168.123 364.532 168.915 365.287 169.713 366.041 170.515 366.79 172.14 368.3 172.963 369.05 173.785 369.805 174.617 370.56 175.45 371.31 176.288 372.064 177.13 372.819 177.978 373.574 178.83 374.324 179.683 375.079 180.54 375.834 181.403 376.584 182.266 377.337 184.001 378.847 184.873 379.597 185.746 380.352 186.623 381.107 187.501 381.857 188.384 382.612 189.261 383.366 190.144 384.121 191.032 384.871 192.797 386.381 193.685 387.131 194.572 387.886 195.454 388.641 196.343 389.394 197.23 390.144 198.113 390.899 199 391.654 199.884 392.404 200.771 393.159 201.654 393.914 202.531 394.668 203.414 395.418 205.169 396.928 206.042 397.678 207.787 399.188 208.655 399.943 209.521 400.691 211.247 402.201 212.105 402.951 213.81 404.461 214.662 405.211 216.348 406.72 217.185 407.475 218.018 408.225 218.85 408.98 219.678 409.735 220.5 410.484 221.317 411.239 222.943 412.748 223.745 413.498 224.548 414.253 225.34 415.008 226.132 415.758 226.919 416.513 228.474 418.022 229.246 418.772 230.77 420.282 231.523 421.031 233.017 422.541 233.754 423.296 234.487 424.045 235.931 425.555 236.648 426.305 237.355 427.06 238.057 427.815 238.755 428.57 239.447 429.32 240.128 430.074 240.806 430.829 241.478 431.578 242.145 432.333 242.806 433.088 243.459 433.843 244.106 434.593 244.748 435.348 245.379 436.102 246.006 436.852 246.628 437.607 247.245 438.362 247.852 439.112 248.454 439.867 249.051 440.622 249.638 441.375 250.219 442.125 250.796 442.88 251.367 443.635 251.929 444.385 252.485 445.14 253.579 446.65 254.116 447.399 255.169 448.909 255.685 449.659 256.197 450.414 257.2 451.924 257.691 452.674 258.178 453.427 258.654 454.182 259.125 454.932 259.591 455.687 260.054 456.442 260.504 457.197 260.951 457.947 261.393 458.702 261.829 459.456 262.26 460.206 262.682 460.961 263.098 461.716 263.508 462.471 263.91 463.221 264.311 463.976 264.702 464.729 265.089 465.479 265.47 466.234 265.846 466.989 266.217 467.744 266.578 468.494 267.291 470.004 267.636 470.753 267.977 471.508 268.312 472.263 268.644 473.013 269.286 474.522 269.601 475.278 269.908 476.027 270.214 476.781 270.509 477.536 270.806 478.286 271.377 479.796 271.653 480.551 271.929 481.301 272.461 482.81 272.721 483.56 273.223 485.07 273.468 485.824 273.71 486.574 274.181 488.083 274.407 488.833 274.632 489.588 275.063 491.098 275.274 491.848 275.686 493.358 275.886 494.107 276.076 494.862 276.272 495.616 276.457 496.372 276.638 497.121 276.818 497.876 276.994 498.631 277.17 499.381 277.341 500.135 277.506 500.89 277.667 501.64 277.827 502.395 277.982 503.15 278.133 503.905 278.283 504.655 278.428 505.41 278.569 506.164 278.709 506.913 278.98 508.423 279.111 509.178 279.241 509.928 279.366 510.683 279.487 511.437 279.607 512.187 279.837 513.697 279.948 514.452 280.058 515.202 280.269 516.712 280.369 517.46 280.569 518.97 280.666 519.725 280.755 520.475 280.935 521.985 281.021 522.735 281.106 523.489 281.266 524.999 281.347 525.749 281.498 527.259 281.568 528.009 281.779 530.272 281.843 531.022 281.903 531.777 281.969 532.532 282.029 533.282 282.089 534.037 282.145 534.791 282.205 535.541 282.26 536.296 282.31 537.051 282.365 537.806 282.416 538.555 282.46 539.311 282.51 540.065 282.555 540.814 282.692 543.079 282.731 543.829 282.811 545.339 282.852 546.089 282.892 546.843 282.962 548.353 282.997 549.102 283.032 549.857 283.063 550.612 283.092 551.362 283.127 552.117 283.158 552.871 283.182 553.626 283.213 554.376 283.242 555.131 283.268 555.886 283.292 556.636 283.368 558.9 283.389 559.649 283.413 560.404 283.434 561.159 283.453 561.909 283.513 564.173 283.534 564.923 283.554 565.678 283.568 566.433 283.589 567.183 283.618 568.693 283.634 569.443 283.679 571.706 283.694 572.456 283.704 573.211 283.719 573.966 283.729 574.716 283.744 575.471 283.765 576.98 283.779 577.73 283.799 579.24 283.81 579.99 283.829 581.498 283.834 582.253 283.844 583.003 283.855 583.758 283.86 584.513 283.87 585.263 283.879 586.018 283.884 586.773 283.894 587.527 283.9 588.277 283.905 589.032 283.915 589.787 283.92 590.537 283.934 592.8 283.939 593.55 283.95 595.06 283.955 595.81 283.965 597.32 283.97 598.07 283.984 600.334 283.984 601.084 283.995 602.594 284 603.344 284 604.098 284.005 604.852 284.005 605.607 284.01 606.357 284.015 607.112 284.015 607.867 284.02 608.617 284.02 609.372 284.025 610.127 284.025 610.881 284.031 611.631 284.031 612.386 284.036 613.141 284.036 614.646 284.136 614.646 284.136 613.89 284.141 613.141 284.141 612.386 284.145 611.631 284.145 610.881 284.15 610.127 284.15 609.372 284.155 608.617 284.155 607.867 284.16 607.112 284.16 606.357 284.165 605.607 284.165 604.852 284.176 603.344 284.176 602.594 284.186 601.084 284.191 600.334 284.196 599.579 284.196 598.825 284.2 598.07 284.205 597.32 284.215 595.81 284.221 595.06 284.231 593.55 284.236 592.8 284.246 591.292 284.255 590.537 284.26 589.787 284.271 588.277 284.281 587.527 284.286 586.773 284.296 586.018 284.301 585.263 284.31 584.513 284.321 583.758 284.326 583.003 284.336 582.253 284.366 579.99 284.376 579.24 284.396 577.73 284.407 576.98 284.416 576.225 284.431 575.471 284.441 574.716 284.452 573.966 284.481 572.456 284.491 571.706 284.536 569.443 284.552 568.693 284.567 567.938 284.586 567.183 284.602 566.433 284.622 565.678 284.637 564.923 284.657 564.173 284.717 561.909 284.737 561.159 284.762 560.404 284.783 559.649 284.807 558.9 284.828 558.145 284.878 556.636 284.902 555.886 284.933 555.131 284.957 554.376 284.988 553.626 285.078 551.362 285.108 550.612 285.144 549.857 285.173 549.102 285.209 548.353 285.244 547.598 285.284 546.843 285.32 546.089 285.359 545.339 285.439 543.829 285.48 543.079 285.615 540.814 285.66 540.065 285.76 538.555 285.81 537.806 285.86 537.051 285.97 535.541 286.026 534.791 286.086 534.037 286.141 533.282 286.202 532.532 286.332 531.022 286.397 530.272 286.462 529.517 286.603 528.009 286.678 527.259 286.749 526.504 286.828 525.749 286.904 524.999 286.983 524.244 287.069 523.489 287.149 522.735 287.24 521.985 287.325 521.23 287.415 520.475 287.511 519.725 287.701 518.215 287.801 517.46 287.901 516.712 288.112 515.202 288.222 514.452 288.333 513.697 288.448 512.942 288.569 512.187 288.684 511.437 288.935 509.928 289.061 509.178 289.19 508.423 289.461 506.913 289.601 506.164 289.893 504.655 290.038 503.905 290.505 501.64 290.669 500.89 291.001 499.381 291.176 498.631 291.352 497.876 291.532 497.121 291.713 496.372 292.094 494.862 292.29 494.107 292.486 493.358 292.897 491.848 293.107 491.098 293.323 490.343 293.765 488.833 293.994 488.083 294.226 487.329 294.462 486.574 294.702 485.824 294.948 485.07 295.199 484.314 295.454 483.56 295.71 482.81 295.975 482.056 296.246 481.301 296.517 480.551 297.08 479.041 297.37 478.286 297.661 477.536 298.263 476.027 298.574 475.278 298.885 474.522 299.206 473.768 299.532 473.013 299.863 472.263 300.198 471.508 300.539 470.753 300.886 470.004 301.237 469.249 301.592 468.494 301.958 467.744 302.325 466.989 302.702 466.234 303.082 465.479 303.468 464.729 304.26 463.221 304.667 462.471 305.073 461.716 305.915 460.206 306.342 459.456 306.778 458.702 307.219 457.947 307.666 457.197 308.579 455.687 309.045 454.932 309.516 454.182 309.998 453.427 310.484 452.674 310.976 451.924 311.473 451.169 311.973 450.414 312.486 449.659 313.002 448.909 313.528 448.154 314.06 447.399 314.596 446.65 315.138 445.895 315.69 445.14 316.246 444.385 316.808 443.635 317.375 442.88 317.951 442.125 318.534 441.375 319.716 439.867 320.318 439.112 320.931 438.362 321.542 437.607 322.165 436.852 322.791 436.102 324.065 434.593 324.712 433.843 326.026 432.333 326.693 431.578 327.365 430.829 328.042 430.074 328.729 429.32 329.416 428.57 330.113 427.815 330.815 427.06 331.528 426.305 332.239 425.555 332.962 424.8 333.688 424.045 334.421 423.296 335.158 422.541 335.9 421.786 336.648 421.031 337.405 420.282 338.163 419.527 338.929 418.772 339.697 418.022 340.473 417.268 342.038 415.758 342.831 415.008 344.426 413.498 345.233 412.748 346.04 411.994 346.853 411.239 347.676 410.484 348.497 409.735 349.32 408.98 350.154 408.225 350.986 407.475 351.823 406.72 352.666 405.966 353.513 405.211 354.361 404.461 356.066 402.951 356.928 402.201 357.786 401.446 358.649 400.691 359.515 399.943 360.383 399.188 362.129 397.678 363.006 396.928 363.879 396.173 364.761 395.418 365.639 394.668 368.288 392.404 369.17 391.654 370.945 390.144 371.828 389.394 373.603 387.886 374.486 387.131 375.373 386.381 376.257 385.626 377.144 384.871 378.026 384.121 379.791 382.612 380.669 381.857 381.547 381.107 382.424 380.352 383.297 379.597 384.17 378.847 386.773 376.584 387.63 375.834 389.345 374.324 390.193 373.574 391.04 372.819 392.726 371.31 393.558 370.56 395.213 369.05 396.03 368.3 396.848 367.546 397.656 366.79 398.458 366.041 399.255 365.287 400.048 364.532 400.835 363.777 401.613 363.027 402.384 362.272 403.152 361.517 403.909 360.767 404.662 360.012 405.404 359.258 406.141 358.503 406.867 357.753 407.59 356.998 408.301 356.243 409.004 355.494 409.701 354.739 410.388 353.984 411.066 353.23 411.732 352.48 412.389 351.725 413.041 350.97 413.678 350.22 414.31 349.465 414.932 348.71 415.538 347.956 416.141 347.206 416.727 346.452 417.309 345.696 417.876 344.947 418.432 344.192 418.974 343.437 419.511 342.682 420.032 341.933 420.544 341.178 421.04 340.423 421.531 339.673 422.003 338.918 422.47 338.163 422.915 337.413 423.357 336.658 423.783 335.904 424.194 335.15 424.596 334.4 424.982 333.645 425.353 332.89 425.714 332.14 426.061 331.385 426.396 330.63 426.717 329.876 427.024 329.126 427.319 328.371 427.595 327.616 427.861 326.866 428.116 326.111 428.352 325.356 428.577 324.603 428.784 323.853 428.979 323.098 429.164 322.343 429.329 321.593 429.481 320.838 429.621 320.083 429.747 319.328 429.852 318.579 429.947 317.824 430.027 317.069 430.092 316.319 430.147 315.564 430.182 314.809 430.203 314.054Z"
       fill="#1874CD"
       fill-rule="evenodd"
       fill-opacity="0.670588"
       id="path30" />
    <path
       d="M582.213 404.801 582.208 404.05 582.182 403.294 582.148 402.538 582.098 401.781 582.032 401.03 581.952 400.274 581.857 399.519 581.747 398.768 581.626 398.012 581.485 397.255 581.335 396.499 581.164 395.748 580.984 394.992 580.788 394.236 580.577 393.484 580.358 392.729 580.116 391.973 579.866 391.217 579.6 390.466 579.319 389.71 579.028 388.953 578.722 388.202 578.401 387.447 578.065 386.691 577.72 385.935 577.359 385.184 576.983 384.427 576.596 383.671 576.194 382.92 575.783 382.164 575.357 381.409 574.921 380.652 574.47 379.901 574.008 379.145 573.532 378.389 573.045 377.638 572.549 376.882 572.037 376.126 571.516 375.375 570.979 374.619 570.432 373.863 569.875 373.107 569.309 372.356 568.733 371.599 568.146 370.843 567.544 370.092 566.933 369.337 566.315 368.581 565.684 367.824 565.047 367.073 564.395 366.317 563.737 365.561 563.066 364.81 562.388 364.055 561.701 363.298 561.009 362.542 560.302 361.791 559.59 361.035 558.873 360.279 558.141 359.528 557.409 358.771 555.914 357.26 555.152 356.509 554.39 355.753 553.617 354.996 552.835 354.245 552.053 353.489 551.26 352.734 550.462 351.978 549.66 351.227 548.036 349.714 547.213 348.963 546.391 348.207 545.558 347.451 544.726 346.699 543.888 345.944 543.046 345.188 542.198 344.432 541.346 343.681 540.493 342.925 539.636 342.168 538.773 341.417 537.91 340.662 536.174 339.15 535.303 338.399 534.43 337.642 533.553 336.886 532.675 336.135 531.791 335.379 530.915 334.624 530.031 333.868 529.144 333.116 527.379 331.604 526.492 330.853 525.603 330.097 524.721 329.342 523.833 328.585 522.946 327.834 522.062 327.078 521.175 326.322 520.292 325.57 519.405 324.814 518.521 324.058 517.645 323.303 516.761 322.552 515.006 321.04 514.135 320.288 512.389 318.776 511.521 318.02 510.654 317.27 508.929 315.757 508.071 315.006 506.366 313.494 505.514 312.742 503.828 311.231 502.991 310.475 502.158 309.724 501.326 308.968 500.498 308.211 499.676 307.46 498.858 306.704 497.233 305.193 496.43 304.442 495.628 303.685 494.836 302.929 494.044 302.178 493.257 301.422 491.702 299.911 490.929 299.16 489.405 297.647 488.653 296.896 487.159 295.383 486.422 294.627 485.689 293.877 484.244 292.365 483.528 291.614 482.82 290.857 482.118 290.101 481.421 289.345 480.729 288.594 480.047 287.839 479.37 287.083 478.698 286.331 478.03 285.575 477.369 284.819 476.717 284.063 476.07 283.312 475.428 282.557 474.796 281.8 474.17 281.049 473.547 280.293 472.931 279.537 472.324 278.786 471.722 278.029 471.126 277.273 470.538 276.518 469.956 275.767 469.38 275.011 468.809 274.255 468.246 273.503 467.69 272.747 466.597 271.235 466.06 270.485 465.007 268.972 464.491 268.221 463.979 267.465 462.976 265.952 462.484 265.201 461.998 264.446 461.521 263.69 461.05 262.939 460.584 262.183 460.122 261.427 459.672 260.67 459.225 259.919 458.783 259.164 458.347 258.408 457.915 257.657 457.494 256.901 457.078 256.144 456.667 255.388 456.266 254.637 455.865 253.881 455.473 253.126 455.087 252.375 454.706 251.618 454.329 250.862 453.958 250.106 453.598 249.355 452.885 247.842 452.54 247.092 452.198 246.336 451.863 245.58 451.532 244.829 450.89 243.316 450.574 242.56 450.267 241.809 449.962 241.054 449.666 240.298 449.37 239.546 448.799 238.034 448.523 237.278 448.247 236.527 447.715 235.015 447.455 234.264 446.952 232.752 446.707 231.996 446.466 231.244 445.995 229.733 445.77 228.982 445.544 228.226 445.113 226.713 444.902 225.962 444.49 224.45 444.29 223.7 444.1 222.944 443.903 222.187 443.719 221.431 443.537 220.68 443.358 219.924 443.182 219.167 443.006 218.416 442.835 217.661 442.67 216.905 442.509 216.154 442.349 215.398 442.193 214.641 442.043 213.885 441.893 213.134 441.748 212.379 441.607 211.623 441.467 210.872 441.196 209.359 441.065 208.603 440.935 207.852 440.809 207.096 440.689 206.341 440.569 205.59 440.338 204.077 440.228 203.321 440.117 202.57 439.907 201.057 439.807 200.307 439.606 198.795 439.511 198.039 439.42 197.288 439.24 195.775 439.154 195.024 439.07 194.269 438.909 192.756 438.828 192.005 438.678 190.493 438.608 189.742 438.397 187.474 438.333 186.723 438.272 185.967 438.207 185.211 438.147 184.46 438.086 183.703 438.031 182.948 437.971 182.197 437.916 181.441 437.865 180.685 437.81 179.928 437.76 179.177 437.715 178.421 437.665 177.665 437.62 176.915 437.484 174.646 437.444 173.895 437.365 172.383 437.324 171.631 437.284 170.876 437.213 169.364 437.179 168.613 437.144 167.857 437.113 167.1 437.084 166.349 437.049 165.594 437.018 164.838 436.994 164.082 436.963 163.331 436.933 162.574 436.908 161.818 436.883 161.067 436.807 158.799 436.787 158.048 436.763 157.292 436.742 156.536 436.723 155.785 436.662 153.517 436.642 152.766 436.623 152.01 436.607 151.254 436.587 150.503 436.557 148.99 436.542 148.239 436.497 145.971 436.481 145.22 436.471 144.464 436.457 143.708 436.447 142.957 436.431 142.202 436.411 140.689 436.397 139.938 436.376 138.426 436.366 137.674 436.347 136.163 436.342 135.407 436.331 134.656 436.321 133.9 436.316 133.143 436.306 132.392 436.297 131.636 436.291 130.88 436.281 130.125 436.276 129.374 436.271 128.617 436.261 127.861 436.256 127.11 436.241 124.843 436.236 124.091 436.226 122.579 436.221 121.828 436.211 120.315 436.205 119.564 436.191 117.297 436.191 116.546 436.181 115.033 436.176 114.282 436.176 113.526 436.171 112.771 436.171 112.014 436.166 111.263 436.16 110.507 436.16 109.751 436.155 109 436.155 108.244 436.15 107.487 436.15 106.732 436.145 105.981 436.145 105.225 436.141 104.469 436.141 102.961 436.04 102.961 436.04 103.718 436.035 104.469 436.035 105.225 436.031 105.981 436.031 106.732 436.026 107.487 436.026 108.244 436.021 109 436.021 109.751 436.015 110.507 436.015 111.263 436.01 112.014 436.01 112.771 436 114.282 436 115.033 435.99 116.546 435.985 117.297 435.981 118.053 435.981 118.809 435.976 119.564 435.971 120.315 435.96 121.828 435.955 122.579 435.945 124.091 435.94 124.843 435.929 126.354 435.92 127.11 435.915 127.861 435.905 129.374 435.895 130.125 435.89 130.88 435.879 131.636 435.874 132.392 435.865 133.143 435.855 133.9 435.85 134.656 435.84 135.407 435.81 137.674 435.8 138.426 435.779 139.938 435.769 140.689 435.76 141.446 435.745 142.202 435.734 142.957 435.724 143.708 435.694 145.22 435.684 145.971 435.639 148.239 435.624 148.99 435.608 149.746 435.589 150.503 435.574 151.254 435.553 152.01 435.539 152.766 435.519 153.517 435.458 155.785 435.439 156.536 435.413 157.292 435.393 158.048 435.368 158.799 435.348 159.556 435.298 161.067 435.273 161.818 435.243 162.574 435.218 163.331 435.187 164.082 435.097 166.349 435.068 167.1 435.032 167.857 435.002 168.613 434.967 169.364 434.932 170.12 434.892 170.876 434.857 171.631 434.816 172.383 434.737 173.895 434.697 174.646 434.561 176.915 434.516 177.665 434.416 179.177 434.366 179.928 434.316 180.685 434.205 182.197 434.15 182.948 434.09 183.703 434.034 184.46 433.974 185.211 433.843 186.723 433.779 187.474 433.713 188.23 433.574 189.742 433.498 190.493 433.427 191.249 433.348 192.005 433.272 192.756 433.192 193.513 433.106 194.269 433.027 195.024 432.935 195.775 432.851 196.531 432.761 197.288 432.665 198.039 432.475 199.551 432.374 200.307 432.274 201.057 432.064 202.57 431.953 203.321 431.843 204.077 431.727 204.833 431.607 205.59 431.491 206.341 431.241 207.852 431.115 208.603 430.985 209.359 430.714 210.872 430.575 211.623 430.283 213.134 430.138 213.885 429.671 216.154 429.506 216.905 429.175 218.416 428.999 219.167 428.823 219.924 428.644 220.68 428.463 221.431 428.081 222.944 427.886 223.7 427.69 224.45 427.279 225.962 427.068 226.713 426.853 227.47 426.411 228.982 426.181 229.733 425.95 230.488 425.714 231.244 425.474 231.996 425.229 232.752 424.977 233.508 424.721 234.264 424.466 235.015 424.2 235.772 423.929 236.527 423.658 237.278 423.096 238.79 422.806 239.546 422.515 240.298 421.912 241.809 421.602 242.56 421.291 243.316 420.97 244.072 420.644 244.829 420.313 245.58 419.978 246.336 419.636 247.092 419.291 247.842 418.939 248.598 418.583 249.355 418.217 250.106 417.85 250.862 417.474 251.618 417.094 252.375 416.708 253.126 415.916 254.637 415.509 255.388 415.103 256.144 414.261 257.657 413.834 258.408 413.398 259.164 412.956 259.919 412.51 260.67 411.597 262.183 411.131 262.939 410.659 263.69 410.178 264.446 409.691 265.201 409.2 265.952 408.703 266.709 408.202 267.465 407.69 268.221 407.174 268.972 406.647 269.729 406.116 270.485 405.579 271.235 405.038 271.991 404.486 272.747 403.93 273.503 403.367 274.255 402.801 275.011 402.225 275.767 401.642 276.518 400.459 278.029 399.857 278.786 399.245 279.537 398.634 280.293 398.011 281.049 397.385 281.8 396.111 283.312 395.464 284.063 394.149 285.575 393.483 286.331 392.811 287.083 392.134 287.839 391.447 288.594 390.76 289.345 390.063 290.101 389.361 290.857 388.648 291.614 387.937 292.365 387.214 293.121 386.487 293.877 385.754 294.627 385.017 295.383 384.275 296.14 383.528 296.896 382.771 297.647 382.013 298.403 381.247 299.16 380.479 299.911 379.702 300.666 378.137 302.178 377.345 302.929 375.749 304.442 374.943 305.193 374.135 305.949 373.323 306.704 372.5 307.46 371.678 308.211 370.855 308.968 370.023 309.724 369.19 310.475 368.353 311.231 367.51 311.986 366.662 312.742 365.815 313.494 364.11 315.006 363.247 315.757 362.39 316.513 361.527 317.27 360.66 318.02 359.792 318.776 358.046 320.288 357.169 321.04 356.296 321.796 355.414 322.552 354.536 323.303 351.889 325.57 351.006 326.322 349.23 327.834 348.348 328.585 346.573 330.097 345.689 330.853 344.802 331.604 343.919 332.36 343.032 333.116 342.15 333.868 340.385 335.379 339.506 336.135 338.628 336.886 337.751 337.642 336.878 338.399 336.005 339.15 333.403 341.417 332.545 342.168 330.83 343.681 329.983 344.432 329.136 345.188 327.45 346.699 326.618 347.451 324.963 348.963 324.145 349.714 323.327 350.47 322.521 351.227 321.719 351.978 320.92 352.734 320.128 353.489 319.341 354.245 318.563 354.996 317.791 355.753 317.024 356.509 316.266 357.26 315.514 358.016 314.772 358.771 314.035 359.528 313.308 360.279 312.585 361.035 311.874 361.791 311.172 362.542 310.475 363.298 309.788 364.055 309.11 364.81 308.444 365.561 307.786 366.317 307.134 367.073 306.497 367.824 305.866 368.581 305.243 369.337 304.637 370.092 304.035 370.843 303.448 371.599 302.867 372.356 302.301 373.107 301.743 373.863 301.202 374.619 300.665 375.375 300.144 376.126 299.632 376.882 299.136 377.638 298.644 378.389 298.173 379.145 297.706 379.901 297.26 380.652 296.819 381.409 296.392 382.164 295.982 382.92 295.58 383.671 295.193 384.427 294.822 385.184 294.461 385.935 294.116 386.691 293.78 387.447 293.459 388.202 293.153 388.953 292.857 389.71 292.581 390.466 292.315 391.217 292.059 391.973 291.823 392.729 291.598 393.484 291.392 394.236 291.197 394.992 291.012 395.748 290.846 396.499 290.695 397.255 290.555 398.012 290.429 398.768 290.324 399.519 290.229 400.274 290.149 401.03 290.084 401.781 290.028 402.538 289.994 403.294 289.973 404.05 289.963 404.801 289.973 405.556 289.994 406.312 290.028 407.064 290.084 407.82 290.149 408.576 290.229 409.332 290.324 410.083 290.429 410.84 290.555 411.595 290.695 412.346 290.846 413.102 291.012 413.858 291.197 414.609 291.392 415.366 291.598 416.122 291.823 416.877 292.059 417.628 292.315 418.384 292.581 419.14 292.857 419.892 293.153 420.648 293.459 421.404 293.78 422.16 294.116 422.912 294.461 423.667 294.822 424.423 295.193 425.174 295.58 425.93 295.982 426.686 296.392 427.443 296.819 428.194 297.26 428.949 297.706 429.705 298.173 430.456 298.644 431.212 299.136 431.969 299.632 432.725 300.144 433.476 300.665 434.232 301.202 434.987 301.743 435.738 302.301 436.495 302.867 437.251 303.448 438.007 304.035 438.758 304.637 439.514 305.243 440.269 305.866 441.021 306.497 441.777 307.134 442.533 307.786 443.289 308.444 444.04 309.11 444.797 309.788 445.553 310.475 446.304 311.172 447.059 311.874 447.815 312.585 448.566 313.308 449.323 314.035 450.079 314.772 450.835 315.514 451.586 316.266 452.341 317.024 453.097 317.791 453.849 318.563 454.605 319.341 455.361 320.128 456.117 320.92 456.868 321.719 457.625 322.521 458.38 323.327 459.131 324.963 460.643 325.79 461.4 326.618 462.151 327.45 462.907 328.293 463.662 329.136 464.413 330.83 465.926 331.688 466.682 332.545 467.433 333.403 468.189 334.271 468.945 335.139 469.696 336.005 470.451 337.751 471.964 338.628 472.715 340.385 474.228 341.267 474.979 343.032 476.49 343.919 477.246 344.802 477.997 345.689 478.754 346.573 479.51 347.46 480.261 348.348 481.017 349.23 481.772 350.119 482.523 351.006 483.279 352.771 484.792 353.654 485.543 354.536 486.299 355.414 487.054 356.296 487.805 357.169 488.562 358.046 489.318 358.919 490.074 359.792 490.825 361.527 492.338 362.39 493.089 363.247 493.844 364.11 494.6 364.962 495.356 365.815 496.108 367.51 497.62 368.353 498.371 369.19 499.126 370.855 500.639 371.678 501.39 373.323 502.902 374.135 503.653 375.749 505.165 376.548 505.921 377.345 506.672 378.137 507.428 378.919 508.184 379.702 508.936 380.479 509.692 381.247 510.447 382.013 511.198 383.528 512.71 384.275 513.467 385.017 514.218 385.754 514.974 386.487 515.73 387.214 516.481 387.937 517.236 389.361 518.749 390.063 519.5 390.76 520.256 391.447 521.012 392.134 521.764 392.811 522.519 393.483 523.275 394.149 524.031 394.807 524.782 395.464 525.539 396.111 526.295 396.748 527.046 397.385 527.802 398.011 528.557 398.634 529.313 399.245 530.064 399.857 530.821 400.459 531.577 401.05 532.328 401.642 533.084 402.225 533.839 402.801 534.596 403.367 535.347 403.93 536.103 404.486 536.859 405.038 537.61 405.579 538.367 406.116 539.123 406.647 539.878 407.174 540.629 407.69 541.385 408.202 542.141 408.703 542.892 409.2 543.649 409.691 544.405 410.178 545.156 410.659 545.911 411.131 546.667 411.597 547.424 412.054 548.175 412.51 548.931 412.956 549.687 413.398 550.438 413.834 551.195 414.261 551.95 414.682 552.706 415.103 553.457 415.916 554.969 416.311 555.721 416.708 556.477 417.094 557.232 417.474 557.988 417.85 558.739 418.583 560.252 418.939 561.003 419.291 561.759 419.636 562.515 419.978 563.27 420.313 564.021 420.644 564.778 420.97 565.534 421.291 566.285 421.912 567.797 422.214 568.554 422.515 569.303 423.096 570.816 423.377 571.567 423.658 572.323 424.2 573.836 424.466 574.587 424.977 576.098 425.229 576.849 425.474 577.606 425.714 578.362 425.95 579.113 426.411 580.624 426.632 581.38 426.853 582.132 427.068 582.888 427.279 583.644 427.484 584.395 427.69 585.151 428.081 586.663 428.273 587.414 428.463 588.17 428.644 588.926 428.823 589.677 429.175 591.19 429.341 591.946 429.506 592.696 429.671 593.452 429.827 594.208 429.983 594.96 430.138 595.716 430.428 597.228 430.575 597.98 430.714 598.735 430.849 599.491 430.985 600.242 431.115 600.998 431.367 602.511 431.491 603.262 431.607 604.017 431.727 604.773 431.843 605.524 432.064 607.037 432.169 607.788 432.274 608.544 432.475 610.055 432.57 610.806 432.761 612.319 432.851 613.07 432.935 613.826 433.027 614.583 433.106 615.339 433.192 616.089 433.272 616.845 433.348 617.601 433.427 618.352 433.498 619.108 433.574 619.865 433.643 620.621 433.713 621.372 433.843 622.883 433.909 623.634 433.974 624.391 434.034 625.147 434.09 625.903 434.15 626.654 434.26 628.166 434.316 628.917 434.466 631.185 434.516 631.936 434.606 633.448 434.651 634.199 434.697 634.955 434.776 636.468 434.816 637.219 434.857 637.975 434.892 638.731 434.932 639.481 435.002 640.994 435.032 641.745 435.068 642.501 435.127 644.013 435.158 644.765 435.218 646.276 435.243 647.027 435.273 647.783 435.323 649.296 435.348 650.047 435.368 650.802 435.393 651.558 435.413 652.309 435.439 653.065 435.479 654.578 435.499 655.329 435.539 656.84 435.553 657.591 435.574 658.347 435.589 659.104 435.608 659.86 435.624 660.611 435.655 662.124 435.669 662.873 435.684 663.63 435.694 664.386 435.71 665.142 435.724 665.893 435.745 667.406 435.76 668.157 435.789 670.424 435.8 671.176 435.82 672.688 435.829 673.439 435.85 674.95 435.855 675.702 435.874 677.214 435.879 677.97 435.89 678.721 435.895 679.478 435.905 680.233 435.91 680.984 435.92 682.496 435.929 683.253 435.935 684.004 435.945 685.516 435.95 686.266 435.965 688.535 435.971 689.286 435.981 690.798 435.981 691.549 435.995 693.817 436 694.568 436 695.324 436.005 696.081 436.01 696.832 436.01 697.587 436.015 698.343 436.015 699.099 436.021 699.85 436.021 700.607 436.026 701.363 436.026 702.114 436.031 702.87 436.031 703.625 436.035 704.381 436.035 705.133 436.04 705.889 436.04 706.645 436.141 706.645 436.141 705.133 436.145 704.381 436.145 703.625 436.15 702.87 436.15 702.114 436.155 701.363 436.155 700.607 436.16 699.85 436.16 699.099 436.171 697.587 436.171 696.832 436.176 696.081 436.176 695.324 436.181 694.568 436.186 693.817 436.191 693.061 436.191 692.304 436.195 691.549 436.2 690.798 436.211 689.286 436.216 688.535 436.231 686.266 436.236 685.516 436.247 684.004 436.25 683.253 436.261 681.74 436.271 680.984 436.276 680.233 436.281 679.478 436.291 678.721 436.297 677.97 436.316 676.458 436.321 675.702 436.331 674.95 436.342 674.194 436.347 673.439 436.356 672.688 436.376 671.176 436.386 670.424 436.397 669.668 436.411 668.912 436.421 668.157 436.431 667.406 436.447 666.65 436.457 665.893 436.471 665.142 436.481 664.386 436.512 662.873 436.526 662.124 436.557 660.611 436.571 659.86 436.587 659.104 436.607 658.347 436.623 657.591 436.642 656.84 436.682 655.329 436.702 654.578 436.763 652.309 436.787 651.558 436.807 650.802 436.833 650.047 436.858 649.296 436.933 647.027 436.963 646.276 436.994 645.52 437.018 644.765 437.049 644.013 437.084 643.257 437.144 641.745 437.179 640.994 437.249 639.481 437.284 638.731 437.365 637.219 437.405 636.468 437.484 634.955 437.53 634.199 437.575 633.448 437.665 631.936 437.715 631.185 437.76 630.429 437.81 629.673 437.865 628.917 437.916 628.166 437.971 627.409 438.031 626.654 438.086 625.903 438.207 624.391 438.272 623.634 438.333 622.883 438.397 622.127 438.468 621.372 438.538 620.621 438.678 619.108 438.754 618.352 438.828 617.601 438.989 616.089 439.07 615.339 439.24 613.826 439.33 613.07 439.42 612.319 439.511 611.563 439.606 610.806 439.706 610.055 439.907 608.544 440.012 607.788 440.117 607.037 440.338 605.524 440.454 604.773 440.569 604.017 440.689 603.262 440.809 602.511 440.935 601.754 441.196 600.242 441.331 599.491 441.467 598.735 441.607 597.98 441.748 597.228 441.893 596.472 442.193 594.96 442.349 594.208 442.67 592.696 442.835 591.946 443.006 591.19 443.358 589.677 443.537 588.926 443.719 588.17 443.903 587.414 444.1 586.663 444.29 585.908 444.49 585.151 444.697 584.395 444.902 583.644 445.113 582.888 445.328 582.132 445.544 581.38 445.995 579.869 446.231 579.113 446.466 578.362 446.707 577.606 446.952 576.849 447.204 576.098 447.455 575.342 447.715 574.587 447.981 573.836 448.247 573.08 448.799 571.567 449.085 570.816 449.37 570.06 449.666 569.303 449.962 568.554 450.574 567.041 450.89 566.285 451.211 565.534 451.532 564.778 451.863 564.021 452.198 563.27 452.54 562.515 452.885 561.759 453.242 561.003 453.598 560.252 453.958 559.495 454.329 558.739 454.706 557.988 455.087 557.232 455.473 556.477 455.865 555.721 456.266 554.969 456.667 554.213 457.078 553.457 457.494 552.706 457.915 551.95 458.347 551.195 458.783 550.438 459.225 549.687 459.672 548.931 460.122 548.175 460.584 547.424 461.05 546.667 461.521 545.911 461.998 545.156 462.484 544.405 462.976 543.649 463.477 542.892 463.979 542.141 464.491 541.385 465.007 540.629 465.534 539.878 466.06 539.123 466.597 538.367 467.143 537.61 467.69 536.859 468.246 536.103 468.809 535.347 469.38 534.596 469.956 533.839 470.538 533.084 471.126 532.328 471.722 531.577 472.324 530.821 472.931 530.064 473.547 529.313 474.17 528.557 474.796 527.802 475.428 527.046 476.07 526.295 476.717 525.539 477.369 524.782 478.03 524.031 478.698 523.275 479.37 522.519 480.047 521.764 480.729 521.012 481.421 520.256 482.118 519.5 482.82 518.749 483.528 517.993 484.244 517.236 484.967 516.481 485.689 515.73 486.422 514.974 487.159 514.218 487.906 513.467 488.653 512.71 489.405 511.954 490.168 511.198 490.929 510.447 491.702 509.692 492.479 508.936 493.257 508.184 494.044 507.428 494.836 506.672 495.628 505.921 497.233 504.41 498.046 503.653 498.858 502.902 499.676 502.146 500.498 501.39 501.326 500.639 502.991 499.126 503.828 498.371 504.67 497.62 505.514 496.864 506.366 496.108 507.219 495.356 508.071 494.6 508.929 493.844 509.791 493.089 510.654 492.338 512.389 490.825 513.262 490.074 515.006 488.562 515.885 487.805 516.761 487.054 517.645 486.299 518.521 485.543 519.405 484.792 520.292 484.036 521.175 483.279 522.062 482.523 522.946 481.772 524.721 480.261 525.603 479.51 527.379 477.997 528.261 477.246 529.144 476.49 530.031 475.734 530.915 474.979 531.791 474.228 532.675 473.471 533.553 472.715 534.43 471.964 536.174 470.451 537.042 469.696 537.91 468.945 539.636 467.433 540.493 466.682 542.198 465.169 543.046 464.413 543.888 463.662 544.726 462.907 545.558 462.151 546.391 461.4 548.036 459.887 548.849 459.131 549.66 458.38 550.462 457.625 551.26 456.868 552.053 456.117 553.617 454.605 554.39 453.849 555.152 453.097 555.914 452.341 556.662 451.586 557.409 450.835 558.873 449.323 559.59 448.566 560.302 447.815 561.009 447.059 561.701 446.304 562.388 445.553 563.066 444.797 563.737 444.04 564.395 443.289 565.047 442.533 565.684 441.777 566.315 441.021 566.933 440.269 567.544 439.514 568.146 438.758 568.733 438.007 569.309 437.251 569.875 436.495 570.432 435.738 570.979 434.987 571.516 434.232 572.037 433.476 572.549 432.725 573.045 431.969 573.532 431.212 574.008 430.456 574.47 429.705 574.921 428.949 575.357 428.194 575.783 427.443 576.194 426.686 576.596 425.93 576.983 425.174 577.359 424.423 577.72 423.667 578.065 422.912 578.401 422.16 578.722 421.404 579.028 420.648 579.319 419.892 579.6 419.14 579.866 418.384 580.116 417.628 580.358 416.877 580.577 416.122 580.788 415.366 580.984 414.609 581.164 413.858 581.335 413.102 581.485 412.346 581.626 411.595 581.747 410.84 581.857 410.083 581.952 409.332 582.032 408.576 582.098 407.82 582.148 407.064 582.182 406.312 582.208 405.556Z"
       fill="#B23AEE"
       fill-rule="evenodd"
       fill-opacity="0.670588"
       id="path32" />
    <g
       clip-path="url(#clip2)"
       filter="url(#fx0)"
       transform="translate(41 282)"
       id="g38">
      <g
         clip-path="url(#clip3)"
         id="g36">
        <path
           d="M362.052 70.1573C356.527 72.3227 352.98 73.8907 351.412 74.8613 347.604 77.5493 345.159 80.032 344.076 82.3093 342.994 84.5867 342.452 86.808 342.452 88.9733 343.05 91.512 344.132 93.64 345.7 95.3573 347.268 97.0747 349.06 97.9333 351.076 97.9333 353.839 97.9333 357.498 96.104 362.052 92.4453ZM511.244 55.8213C507.436 55.8213 505.532 56.4933 505.532 57.8373 505.532 60.5253 506.54 62.3173 508.556 63.2133 509.826 62.616 510.834 62.3173 511.58 62.3173 512.775 62.3173 513.522 63.064 513.82 64.5573 513.746 65.6027 513.148 66.2747 512.028 66.5733L510.012 66.7973C506.055 66.648 503.815 64.072 503.292 59.0693 501.65 59.592 500.119 60.8613 498.7 62.8773 496.46 67.432 495.34 72.5093 495.34 78.1093 495.34 86.8453 497.842 93.6027 502.844 98.3813 505.383 100.248 507.959 101.181 510.572 101.181 515.65 101.181 519.794 99.128 523.004 95.0213 525.991 89.944 527.484 84.68 527.484 79.2293L527.484 78.5573C527.26 71.9867 525.506 66.2747 522.22 61.4213 519.084 58.136 515.426 56.2693 511.244 55.8213ZM186.244 55.8213C182.436 55.8213 180.532 56.4933 180.532 57.8373 180.532 60.5253 181.54 62.3173 183.556 63.2133 184.826 62.616 185.834 62.3173 186.58 62.3173 187.775 62.3173 188.522 63.064 188.82 64.5573 188.746 65.6027 188.148 66.2747 187.028 66.5733L185.012 66.7973C181.055 66.648 178.815 64.072 178.292 59.0693 176.65 59.592 175.119 60.8613 173.7 62.8773 171.46 67.432 170.34 72.5093 170.34 78.1093 170.34 86.8453 172.842 93.6027 177.844 98.3813 180.383 100.248 182.959 101.181 185.572 101.181 190.65 101.181 194.794 99.128 198.004 95.0213 200.991 89.944 202.484 84.68 202.484 79.2293L202.484 78.5573C202.26 71.9867 200.506 66.2747 197.22 61.4213 194.084 58.136 190.426 56.2693 186.244 55.8213ZM80.3484 54.5893C76.2418 54.5893 73.1058 56.4933 70.9404 60.3013 69.0738 63.2133 68.1404 67.5067 68.1404 73.1813 69.4844 89.9067 74.5618 98.2693 83.3724 98.2693 88.4498 98.2693 92.4071 95.544 95.2444 90.0933L95.2444 73.7413C95.2444 68.44 92.5938 62.8773 87.2924 57.0533 84.3058 55.4107 81.9911 54.5893 80.3484 54.5893ZM27.3484 54.5893C23.2417 54.5893 20.1057 56.4933 17.9404 60.3013 16.0738 63.2133 15.1404 67.5067 15.1404 73.1813 16.4844 89.9067 21.5618 98.2693 30.3724 98.2693 35.4498 98.2693 39.4071 95.544 42.2444 90.0933L42.2444 73.7413C42.2444 68.44 39.5938 62.8773 34.2924 57.0533 31.3057 55.4107 28.9911 54.5893 27.3484 54.5893ZM512.588 52.9093C519.01 52.9093 524.087 54.7387 527.82 58.3973 533.196 64.968 535.884 71.0907 535.884 76.7653 535.884 83.0373 534.204 88.7493 530.844 93.9013 528.306 97.784 523.788 100.771 517.292 102.861 514.903 103.459 512.812 103.757 511.02 103.757 500.94 103.757 493.474 98.4187 488.62 87.7413 487.575 84.6053 487.052 81.3947 487.052 78.1093L487.052 77.3253C487.052 69.784 490.039 63.5493 496.012 58.6213 498.476 57.2027 501.127 56.4933 503.964 56.4933 506.13 54.104 509.004 52.9093 512.588 52.9093ZM187.588 52.9093C194.01 52.9093 199.087 54.7387 202.82 58.3973 208.196 64.968 210.884 71.0907 210.884 76.7653 210.884 83.0373 209.204 88.7493 205.844 93.9013 203.306 97.784 198.788 100.771 192.292 102.861 189.903 103.459 187.812 103.757 186.02 103.757 175.94 103.757 168.474 98.4187 163.62 87.7413 162.575 84.6053 162.052 81.3947 162.052 78.1093L162.052 77.3253C162.052 69.784 165.039 63.5493 171.012 58.6213 173.476 57.2027 176.127 56.4933 178.964 56.4933 181.13 54.104 184.004 52.9093 187.588 52.9093ZM601.052 52.2373 603.404 52.2373 603.404 62.8773C607.063 59.2187 609.191 57.128 609.788 56.6053 611.431 55.1867 613.204 54.104 615.108 53.3573 617.012 52.6107 618.898 52.2373 620.764 52.2373 623.9 52.2373 626.887 53.1333 629.724 54.9253 633.084 57.016 635.063 60.7493 635.66 66.1253L635.66 108.909C635.66 114.36 638.498 117.981 644.172 119.773L643.724 120.781C638.647 120.781 634.204 119.811 630.396 117.869 627.559 114.957 626.028 111.896 625.804 108.685L625.804 70.9413C625.282 66.8347 624.423 63.8853 623.228 62.0933 621.436 59.7787 619.122 58.6213 616.284 58.6213 614.268 58.6213 612.29 59.144 610.348 60.1893 607.362 61.7573 605.047 63.5493 603.404 65.5653L603.404 92.4453C603.404 95.7307 603.628 97.8587 604.076 98.8293 604.524 99.8 605.196 100.528 606.092 101.013 606.988 101.499 608.818 101.741 611.58 101.741L611.58 103.757 586.716 103.757 586.716 101.741C589.031 101.741 590.655 101.499 591.588 101.013 592.522 100.528 593.212 99.744 593.66 98.6613 594.108 97.5787 594.332 95.5067 594.332 92.4453L594.332 73.2933C594.332 67.768 594.183 64.2213 593.884 62.6533 593.586 61.4587 593.175 60.6373 592.652 60.1893 592.13 59.7413 591.383 59.5173 590.412 59.5173 589.367 59.5173 588.135 59.7787 586.716 60.3013L585.932 58.2853ZM266.716 52.2373 269.068 52.2373 269.068 62.8773C272.727 59.2187 274.855 57.128 275.452 56.6053 277.095 55.1867 278.868 54.104 280.772 53.3573 282.676 52.6107 284.562 52.2373 286.428 52.2373 289.564 52.2373 292.271 53.1333 294.548 54.9253 296.826 56.7173 298.786 59.368 300.428 62.8773 303.266 58.472 305.972 55.5973 308.548 54.2533 311.124 52.9093 313.794 52.2373 316.556 52.2373 319.244 52.2373 321.615 52.9093 323.668 54.2533 325.722 55.5973 327.346 57.8373 328.54 60.9733 329.362 63.064 329.772 66.3867 329.772 70.9413L329.772 105.661C329.772 110.739 332.834 114.173 338.956 115.965L338.508 116.973C332.834 116.973 328.391 116.003 325.18 114.061 322.343 111.149 320.85 108.088 320.7 104.877L320.7 70.9413C320.7 66.8347 320.215 63.9227 319.244 62.2053 317.751 59.8907 315.436 58.7333 312.3 58.7333 310.434 58.7333 308.586 59.256 306.756 60.3013 304.927 61.3467 302.93 63.512 300.764 66.7973L300.764 92.4453C300.764 95.88 300.97 98.008 301.38 98.8293 301.791 99.6507 302.519 100.341 303.564 100.901 304.61 101.461 306.402 101.741 308.94 101.741L308.94 103.757 283.628 103.757 283.628 101.741C286.391 101.741 288.295 101.424 289.34 100.789 290.386 100.155 291.095 99.1653 291.468 97.8213 291.692 97.224 291.804 95.432 291.804 92.4453L291.804 70.9413C291.804 66.8347 291.207 63.8853 290.012 62.0933 287.474 59.7787 284.786 58.6213 281.948 58.6213 279.932 58.6213 277.954 59.144 276.012 60.1893 273.026 61.7573 270.711 63.5493 269.068 65.5653L269.068 92.4453C269.068 95.7307 269.292 97.8587 269.74 98.8293 270.188 99.8 270.86 100.528 271.756 101.013 272.652 101.499 274.482 101.741 277.244 101.741L277.244 103.757 252.38 103.757 252.38 101.741C254.695 101.741 256.319 101.499 257.252 101.013 258.186 100.528 258.876 99.744 259.324 98.6613 259.772 97.5787 259.996 95.5067 259.996 92.4453L259.996 73.2933C259.996 67.768 259.847 64.2213 259.548 62.6533 259.25 61.4587 258.839 60.6373 258.316 60.1893 257.794 59.7413 257.047 59.5173 256.076 59.5173 255.031 59.5173 253.799 59.7787 252.38 60.3013L251.596 58.2853ZM227.828 52.2373 230.18 52.2373 230.18 63.4373C234.362 55.9707 238.655 52.2373 243.06 52.2373 245.076 52.2373 246.738 52.8347 248.044 54.0293 249.351 55.224 250.004 56.6427 250.004 58.2853 250.004 59.704 249.538 60.8987 248.604 61.8693 247.671 62.84 246.532 63.3253 245.188 63.3253 243.919 63.3253 242.482 62.6907 240.876 61.4213 239.271 60.152 238.095 59.5173 237.348 59.5173 236.676 59.5173 235.967 59.8907 235.22 60.6373 232.906 62.4293 231.226 64.8933 230.18 68.0293L230.18 103.421C230.18 106.184 230.516 108.275 231.188 109.693 231.636 110.664 232.476 111.467 233.708 112.101 234.94 112.736 236.676 113.053 238.916 113.053L238.916 115.069 213.268 115.069 213.268 113.053C215.807 113.053 217.711 112.68 218.98 111.933 219.876 111.336 220.548 110.477 220.996 109.357L220.996 68.5893C220.996 65.752 220.903 63.7733 220.716 62.6533 220.53 61.5333 220.119 60.712 219.484 60.1893 218.85 59.6667 218.047 59.4053 217.076 59.4053 215.956 59.4053 214.687 59.704 213.268 60.3013L212.708 58.2853ZM123.052 52.2373 125.404 52.2373 125.404 62.8773C129.063 59.2187 131.191 57.128 131.788 56.6053 133.431 55.1867 135.204 54.104 137.108 53.3573 139.012 52.6107 140.898 52.2373 142.764 52.2373 145.9 52.2373 148.887 53.1333 151.724 54.9253 155.084 57.016 157.063 60.7493 157.66 66.1253L157.66 108.909C157.66 114.36 160.498 117.981 166.172 119.773L165.724 120.781C160.647 120.781 156.204 119.811 152.396 117.869 149.559 114.957 148.028 111.896 147.804 108.685L147.804 70.9413C147.282 66.8347 146.423 63.8853 145.228 62.0933 143.436 59.7787 141.122 58.6213 138.284 58.6213 136.268 58.6213 134.29 59.144 132.348 60.1893 129.362 61.7573 127.047 63.5493 125.404 65.5653L125.404 92.4453C125.404 95.7307 125.628 97.8587 126.076 98.8293 126.524 99.8 127.196 100.528 128.092 101.013 128.988 101.499 130.818 101.741 133.58 101.741L133.58 103.757 108.716 103.757 108.716 101.741C111.031 101.741 112.655 101.499 113.588 101.013 114.522 100.528 115.212 99.744 115.66 98.6613 116.108 97.5787 116.332 95.5067 116.332 92.4453L116.332 73.2933C116.332 67.768 116.183 64.2213 115.884 62.6533 115.586 61.4587 115.175 60.6373 114.652 60.1893 114.13 59.7413 113.383 59.5173 112.412 59.5173 111.367 59.5173 110.135 59.7787 108.716 60.3013L107.932 58.2853ZM575.516 52.1253 577.98 52.1253 577.98 92.3333C577.98 95.4693 578.186 97.56 578.596 98.6053 579.007 99.6507 579.66 100.435 580.556 100.957 581.452 101.48 583.095 101.741 585.484 101.741L585.484 103.757 561.18 103.757 561.18 101.741C563.644 101.741 565.287 101.499 566.108 101.013 566.93 100.528 567.583 99.744 568.068 98.6613 568.554 97.5787 568.796 95.4693 568.796 92.3333L568.796 66.3493 568.348 62.5413C568.05 61.3467 567.639 60.5253 567.116 60.0773 566.594 59.6293 565.847 59.4053 564.876 59.4053 563.831 59.4053 562.599 59.6667 561.18 60.1893L561.18 57.9493ZM475.516 52.1253 477.98 52.1253 477.98 92.3333C477.98 95.4693 478.186 97.56 478.596 98.6053 479.007 99.6507 479.66 100.435 480.556 100.957 481.452 101.48 483.095 101.741 485.484 101.741L485.484 103.757 461.18 103.757 461.18 101.741C463.644 101.741 465.287 101.499 466.108 101.013 466.93 100.528 467.583 99.744 468.068 98.6613 468.554 97.5787 468.796 95.4693 468.796 92.3333L468.796 66.3493 468.348 62.5413C468.05 61.3467 467.639 60.5253 467.116 60.0773 466.594 59.6293 465.847 59.4053 464.876 59.4053 463.831 59.4053 462.599 59.6667 461.18 60.1893L461.18 57.9493ZM354.436 51.6773C358.842 51.6773 362.463 52.424 365.3 53.9173 367.466 55.0373 369.071 56.8293 370.116 59.2933 370.788 60.8613 371.124 64.0347 371.124 68.8133L371.124 85.8373C371.124 90.616 371.199 93.5467 371.348 94.6293 371.498 95.712 371.796 96.44 372.244 96.8133 372.692 97.1867 373.178 97.3733 373.7 97.3733 374.298 97.3733 374.82 97.224 375.268 96.9253 376.015 96.4773 377.471 95.1707 379.636 93.0053L379.636 96.0293C375.604 101.48 371.722 104.205 367.988 104.205 366.196 104.205 364.778 103.589 363.732 102.357 362.687 101.125 362.127 99.016 362.052 96.0293 356.9 99.9867 353.69 102.301 352.42 102.973 350.404 103.869 348.276 104.317 346.036 104.317 342.602 104.317 339.764 103.123 337.524 100.733 335.284 98.344 334.164 95.2453 334.164 91.4373 334.164 87.5547 335.06 84.008 336.852 80.7973 338.868 78.0347 341.631 75.6453 345.14 73.6293 348.65 71.6133 354.287 69.336 362.052 66.7973L362.052 64.8933C362.052 62.056 361.268 59.704 359.7 57.8373 358.132 55.9707 355.818 55.0373 352.756 55.0373 350.442 55.0373 348.612 55.672 347.268 56.9413 345.924 58.136 345.252 59.5547 345.252 61.1973L345.364 64.3333C345.364 65.976 344.935 67.264 344.076 68.1973 343.218 69.1307 342.079 69.5973 340.66 69.5973 339.316 69.5973 338.215 69.112 337.356 68.1413 336.498 67.1707 336.068 65.864 336.068 64.2213 336.068 61.0853 337.674 58.2107 340.884 55.5973 344.095 52.984 348.612 51.6773 354.436 51.6773ZM105.212 46.5253 109.468 46.5253 109.468 49.3253C106.706 49.3253 105.287 50.4827 105.212 52.7973L105.212 101.853C105.212 119.624 95.5804 128.509 76.3164 128.509 70.0444 128.509 66.4231 126.531 65.4524 122.573L65.4524 121.341C65.5271 118.653 66.9458 117.235 69.7084 117.085L71.1644 117.085C72.8818 117.085 75.7191 118.803 79.6764 122.237 80.7964 123.059 81.8044 123.469 82.7004 123.469 87.4791 123.469 91.2497 121.043 94.0124 116.189 94.8337 113.651 95.2444 110.067 95.2444 105.437L95.2444 97.2613C90.9884 100.771 86.3217 102.525 81.2444 102.525 70.1937 102.525 62.6898 96.328 58.7324 83.9333 58.1351 81.6187 57.8364 79.2293 57.8364 76.7653 57.8364 68.552 61.4951 61.272 68.8124 54.9253 72.9191 52.312 77.1751 51.0053 81.5804 51.0053L81.8044 51.0053C87.2551 51.0053 91.7351 52.6107 95.2444 55.8213L95.2444 54.0293C96.7377 49.3253 100.06 46.824 105.212 46.5253ZM52.2124 46.5253 56.4684 46.5253 56.4684 49.3253C53.7058 49.3253 52.2871 50.4827 52.2124 52.7973L52.2124 101.853C52.2124 119.624 42.5804 128.509 23.3164 128.509 17.0444 128.509 13.4231 126.531 12.4524 122.573L12.4524 121.341C12.5271 118.653 13.9458 117.235 16.7084 117.085L18.1644 117.085C19.8818 117.085 22.7191 118.803 26.6764 122.237 27.7964 123.059 28.8044 123.469 29.7004 123.469 34.4791 123.469 38.2498 121.043 41.0124 116.189 41.8338 113.651 42.2444 110.067 42.2444 105.437L42.2444 97.2613C37.9884 100.771 33.3218 102.525 28.2444 102.525 17.1938 102.525 9.68975 96.328 5.73242 83.9333 5.13509 81.6187 4.83642 79.2293 4.83642 76.7653 4.83642 68.552 8.49508 61.272 15.8124 54.9253 19.9191 52.312 24.1751 51.0053 28.5804 51.0053L28.8044 51.0053C34.2551 51.0053 38.7351 52.6107 42.2444 55.8213L42.2444 54.0293C43.7378 49.3253 47.0604 46.824 52.2124 46.5253ZM446.516 44.7333 447.86 44.7333C450.474 44.7333 452.938 45.256 455.252 46.3013 456.223 46.9733 456.708 47.8693 456.708 48.9893 456.708 50.1093 456.298 51.4533 455.476 53.0213L430.724 105.325 428.484 105.325 410.564 62.9893C409.743 61.048 408.978 59.648 408.268 58.7893 407.559 57.9307 406.644 57.2027 405.524 56.6053 404.852 56.3067 403.62 56.008 401.828 55.7093L401.828 53.6933 425.348 53.6933 425.348 55.7093 423.892 55.7093C422.474 55.7093 421.391 56.0453 420.644 56.7173 419.898 57.3893 419.524 58.3227 419.524 59.5173 419.524 60.7867 419.898 62.3173 420.644 64.1093L432.292 91.7733 450.996 53.6933C452.042 51.976 452.564 50.5947 452.564 49.5493 452.564 49.0267 452.154 48.3173 451.332 47.4213 450.735 46.7493 449.615 46.4133 447.972 46.4133L446.516 46.4133ZM571.484 34.2053C572.978 34.2053 574.266 34.7467 575.348 35.8293 576.431 36.912 576.972 38.2373 576.972 39.8053 576.972 41.2987 576.431 42.6053 575.348 43.7253 574.266 44.8453 572.978 45.4053 571.484 45.4053 569.916 45.4053 568.591 44.8453 567.508 43.7253 566.426 42.6053 565.884 41.2987 565.884 39.8053 565.884 38.2373 566.426 36.912 567.508 35.8293 568.591 34.7467 569.916 34.2053 571.484 34.2053ZM471.484 34.2053C472.978 34.2053 474.266 34.7467 475.348 35.8293 476.431 36.912 476.972 38.2373 476.972 39.8053 476.972 41.2987 476.431 42.6053 475.348 43.7253 474.266 44.8453 472.978 45.4053 471.484 45.4053 469.916 45.4053 468.591 44.8453 467.508 43.7253 466.426 42.6053 465.884 41.2987 465.884 39.8053 465.884 38.2373 466.426 36.912 467.508 35.8293 468.591 34.7467 469.916 34.2053 471.484 34.2053ZM549.468 4.18932 551.932 4.18932 551.932 115.517C551.932 118.653 552.156 120.744 552.604 121.789 553.052 122.835 553.575 123.693 554.172 124.365 554.77 125.037 556.188 125.859 558.428 126.829L557.98 128.061C547.9 127.165 542.86 122.984 542.86 115.517L542.86 25.1333C542.86 19.5333 542.73 16.08 542.468 14.7733 542.207 13.4667 541.796 12.5707 541.236 12.0853 540.676 11.6 539.986 11.3573 539.164 11.3573 538.194 11.3573 536.962 11.656 535.468 12.2533L534.572 10.3493ZM393.468 4.18932 395.932 4.18932 395.932 115.517C395.932 118.653 396.156 120.744 396.604 121.789 397.052 122.835 397.575 123.693 398.172 124.365 398.77 125.037 400.188 125.859 402.428 126.829L401.98 128.061C391.9 127.165 386.86 122.984 386.86 115.517L386.86 25.1333C386.86 19.5333 386.73 16.08 386.468 14.7733 386.207 13.4667 385.796 12.5707 385.236 12.0853 384.676 11.6 383.986 11.3573 383.164 11.3573 382.194 11.3573 380.962 11.656 379.468 12.2533L378.572 10.3493Z"
           stroke="#BFBFBF"
           stroke-linejoin="round"
           stroke-miterlimit="10"
           fill="#F2F2F2"
           fill-rule="evenodd"
           id="path34" />
      </g>
    </g>
    <path
       d="M400.758 350.49C395.233 352.656 391.686 354.224 390.118 355.194 386.31 357.882 383.865 360.365 382.782 362.642 381.699 364.92 381.158 367.141 381.158 369.306 381.755 371.845 382.838 373.973 384.406 375.69 385.974 377.408 387.766 378.266 389.782 378.266 392.545 378.266 396.203 376.437 400.758 372.778ZM549.95 336.154C546.142 336.154 544.238 336.826 544.238 338.17 544.238 340.858 545.246 342.65 547.262 343.546 548.531 342.949 549.539 342.65 550.286 342.65 551.481 342.65 552.227 343.397 552.526 344.89 552.451 345.936 551.854 346.608 550.734 346.906L548.718 347.13C544.761 346.981 542.521 344.405 541.998 339.402 540.355 339.925 538.825 341.194 537.406 343.21 535.166 347.765 534.046 352.842 534.046 358.442 534.046 367.178 536.547 373.936 541.55 378.714 544.089 380.581 546.665 381.514 549.278 381.514 554.355 381.514 558.499 379.461 561.71 375.354 564.697 370.277 566.19 365.013 566.19 359.562L566.19 358.89C565.966 352.32 564.211 346.608 560.926 341.754 557.79 338.469 554.131 336.602 549.95 336.154ZM224.95 336.154C221.142 336.154 219.238 336.826 219.238 338.17 219.238 340.858 220.246 342.65 222.262 343.546 223.531 342.949 224.539 342.65 225.286 342.65 226.481 342.65 227.227 343.397 227.526 344.89 227.451 345.936 226.854 346.608 225.734 346.906L223.718 347.13C219.761 346.981 217.521 344.405 216.998 339.402 215.355 339.925 213.825 341.194 212.406 343.21 210.166 347.765 209.046 352.842 209.046 358.442 209.046 367.178 211.547 373.936 216.55 378.714 219.089 380.581 221.665 381.514 224.278 381.514 229.355 381.514 233.499 379.461 236.71 375.354 239.697 370.277 241.19 365.013 241.19 359.562L241.19 358.89C240.966 352.32 239.211 346.608 235.926 341.754 232.79 338.469 229.131 336.602 224.95 336.154ZM119.054 334.922C114.947 334.922 111.811 336.826 109.646 340.634 107.779 343.546 106.846 347.84 106.846 353.514 108.19 370.24 113.267 378.602 122.078 378.602 127.155 378.602 131.113 375.877 133.95 370.426L133.95 354.074C133.95 348.773 131.299 343.21 125.998 337.386 123.011 335.744 120.697 334.922 119.054 334.922ZM66.0541 334.922C61.9475 334.922 58.8115 336.826 56.6461 340.634 54.7795 343.546 53.8461 347.84 53.8461 353.514 55.1901 370.24 60.2675 378.602 69.0781 378.602 74.1555 378.602 78.1128 375.877 80.9501 370.426L80.9501 354.074C80.9501 348.773 78.2995 343.21 72.9981 337.386 70.0115 335.744 67.6968 334.922 66.0541 334.922ZM551.294 333.242C557.715 333.242 562.793 335.072 566.526 338.73 571.902 345.301 574.59 351.424 574.59 357.098 574.59 363.37 572.91 369.082 569.55 374.234 567.011 378.117 562.494 381.104 555.998 383.194 553.609 383.792 551.518 384.09 549.726 384.09 539.646 384.09 532.18 378.752 527.326 368.074 526.281 364.938 525.758 361.728 525.758 358.442L525.758 357.658C525.758 350.117 528.745 343.882 534.718 338.954 537.182 337.536 539.833 336.826 542.67 336.826 544.836 334.437 547.71 333.242 551.294 333.242ZM226.294 333.242C232.715 333.242 237.793 335.072 241.526 338.73 246.902 345.301 249.59 351.424 249.59 357.098 249.59 363.37 247.91 369.082 244.55 374.234 242.011 378.117 237.494 381.104 230.998 383.194 228.609 383.792 226.518 384.09 224.726 384.09 214.646 384.09 207.179 378.752 202.326 368.074 201.281 364.938 200.758 361.728 200.758 358.442L200.758 357.658C200.758 350.117 203.745 343.882 209.718 338.954 212.182 337.536 214.833 336.826 217.67 336.826 219.835 334.437 222.71 333.242 226.294 333.242ZM639.758 332.57 642.11 332.57 642.11 343.21C645.769 339.552 647.897 337.461 648.494 336.938 650.137 335.52 651.91 334.437 653.814 333.69 655.718 332.944 657.603 332.57 659.47 332.57 662.606 332.57 665.593 333.466 668.43 335.258 671.79 337.349 673.769 341.082 674.366 346.458L674.366 389.242C674.366 394.693 677.203 398.314 682.878 400.106L682.43 401.114C677.353 401.114 672.91 400.144 669.102 398.202 666.265 395.29 664.734 392.229 664.51 389.018L664.51 351.274C663.987 347.168 663.129 344.218 661.934 342.426 660.142 340.112 657.827 338.954 654.99 338.954 652.974 338.954 650.995 339.477 649.054 340.522 646.067 342.09 643.753 343.882 642.11 345.898L642.11 372.778C642.11 376.064 642.334 378.192 642.782 379.162 643.23 380.133 643.902 380.861 644.798 381.346 645.694 381.832 647.523 382.074 650.286 382.074L650.286 384.09 625.422 384.09 625.422 382.074C627.737 382.074 629.361 381.832 630.294 381.346 631.227 380.861 631.918 380.077 632.366 378.994 632.814 377.912 633.038 375.84 633.038 372.778L633.038 353.626C633.038 348.101 632.889 344.554 632.59 342.986 632.291 341.792 631.881 340.97 631.358 340.522 630.835 340.074 630.089 339.85 629.118 339.85 628.073 339.85 626.841 340.112 625.422 340.634L624.638 338.618ZM305.422 332.57 307.774 332.57 307.774 343.21C311.433 339.552 313.561 337.461 314.158 336.938 315.801 335.52 317.574 334.437 319.478 333.69 321.382 332.944 323.267 332.57 325.134 332.57 328.27 332.57 330.977 333.466 333.254 335.258 335.531 337.05 337.491 339.701 339.134 343.21 341.971 338.805 344.678 335.93 347.254 334.586 349.83 333.242 352.499 332.57 355.262 332.57 357.95 332.57 360.321 333.242 362.374 334.586 364.427 335.93 366.051 338.17 367.246 341.306 368.067 343.397 368.478 346.72 368.478 351.274L368.478 385.994C368.478 391.072 371.539 394.506 377.662 396.298L377.214 397.306C371.539 397.306 367.097 396.336 363.886 394.394 361.049 391.482 359.555 388.421 359.406 385.21L359.406 351.274C359.406 347.168 358.921 344.256 357.95 342.538 356.457 340.224 354.142 339.066 351.006 339.066 349.139 339.066 347.291 339.589 345.462 340.634 343.633 341.68 341.635 343.845 339.47 347.13L339.47 372.778C339.47 376.213 339.675 378.341 340.086 379.162 340.497 379.984 341.225 380.674 342.27 381.234 343.315 381.794 345.107 382.074 347.646 382.074L347.646 384.09 322.334 384.09 322.334 382.074C325.097 382.074 327.001 381.757 328.046 381.122 329.091 380.488 329.801 379.498 330.174 378.154 330.398 377.557 330.51 375.765 330.51 372.778L330.51 351.274C330.51 347.168 329.913 344.218 328.718 342.426 326.179 340.112 323.491 338.954 320.654 338.954 318.638 338.954 316.659 339.477 314.718 340.522 311.731 342.09 309.417 343.882 307.774 345.898L307.774 372.778C307.774 376.064 307.998 378.192 308.446 379.162 308.894 380.133 309.566 380.861 310.462 381.346 311.358 381.832 313.187 382.074 315.95 382.074L315.95 384.09 291.086 384.09 291.086 382.074C293.401 382.074 295.025 381.832 295.958 381.346 296.891 380.861 297.582 380.077 298.03 378.994 298.478 377.912 298.702 375.84 298.702 372.778L298.702 353.626C298.702 348.101 298.553 344.554 298.254 342.986 297.955 341.792 297.545 340.97 297.022 340.522 296.499 340.074 295.753 339.85 294.782 339.85 293.737 339.85 292.505 340.112 291.086 340.634L290.302 338.618ZM266.534 332.57 268.886 332.57 268.886 343.77C273.067 336.304 277.361 332.57 281.766 332.57 283.782 332.57 285.443 333.168 286.75 334.362 288.057 335.557 288.71 336.976 288.71 338.618 288.71 340.037 288.243 341.232 287.31 342.202 286.377 343.173 285.238 343.658 283.894 343.658 282.625 343.658 281.187 343.024 279.582 341.754 277.977 340.485 276.801 339.85 276.054 339.85 275.382 339.85 274.673 340.224 273.926 340.97 271.611 342.762 269.931 345.226 268.886 348.362L268.886 383.754C268.886 386.517 269.222 388.608 269.894 390.026 270.342 390.997 271.182 391.8 272.414 392.434 273.646 393.069 275.382 393.386 277.622 393.386L277.622 395.402 251.974 395.402 251.974 393.386C254.513 393.386 256.417 393.013 257.686 392.266 258.582 391.669 259.254 390.81 259.702 389.69L259.702 348.922C259.702 346.085 259.609 344.106 259.422 342.986 259.235 341.866 258.825 341.045 258.19 340.522 257.555 340 256.753 339.738 255.782 339.738 254.662 339.738 253.393 340.037 251.974 340.634L251.414 338.618ZM161.758 332.57 164.11 332.57 164.11 343.21C167.769 339.552 169.897 337.461 170.494 336.938 172.137 335.52 173.91 334.437 175.814 333.69 177.718 332.944 179.603 332.57 181.47 332.57 184.606 332.57 187.593 333.466 190.43 335.258 193.79 337.349 195.769 341.082 196.366 346.458L196.366 389.242C196.366 394.693 199.203 398.314 204.878 400.106L204.43 401.114C199.353 401.114 194.91 400.144 191.102 398.202 188.265 395.29 186.734 392.229 186.51 389.018L186.51 351.274C185.987 347.168 185.129 344.218 183.934 342.426 182.142 340.112 179.827 338.954 176.99 338.954 174.974 338.954 172.995 339.477 171.054 340.522 168.067 342.09 165.753 343.882 164.11 345.898L164.11 372.778C164.11 376.064 164.334 378.192 164.782 379.162 165.23 380.133 165.902 380.861 166.798 381.346 167.694 381.832 169.523 382.074 172.286 382.074L172.286 384.09 147.422 384.09 147.422 382.074C149.737 382.074 151.361 381.832 152.294 381.346 153.227 380.861 153.918 380.077 154.366 378.994 154.814 377.912 155.038 375.84 155.038 372.778L155.038 353.626C155.038 348.101 154.889 344.554 154.59 342.986 154.291 341.792 153.881 340.97 153.358 340.522 152.835 340.074 152.089 339.85 151.118 339.85 150.073 339.85 148.841 340.112 147.422 340.634L146.638 338.618ZM614.222 332.458 616.686 332.458 616.686 372.666C616.686 375.802 616.891 377.893 617.302 378.938 617.713 379.984 618.366 380.768 619.262 381.29 620.158 381.813 621.801 382.074 624.19 382.074L624.19 384.09 599.886 384.09 599.886 382.074C602.35 382.074 603.993 381.832 604.814 381.346 605.635 380.861 606.289 380.077 606.774 378.994 607.259 377.912 607.502 375.802 607.502 372.666L607.502 346.682 607.054 342.874C606.755 341.68 606.345 340.858 605.822 340.41 605.299 339.962 604.553 339.738 603.582 339.738 602.537 339.738 601.305 340 599.886 340.522L599.886 338.282ZM514.222 332.458 516.686 332.458 516.686 372.666C516.686 375.802 516.891 377.893 517.302 378.938 517.713 379.984 518.366 380.768 519.262 381.29 520.158 381.813 521.801 382.074 524.19 382.074L524.19 384.09 499.886 384.09 499.886 382.074C502.35 382.074 503.993 381.832 504.814 381.346 505.635 380.861 506.289 380.077 506.774 378.994 507.259 377.912 507.502 375.802 507.502 372.666L507.502 346.682 507.054 342.874C506.755 341.68 506.345 340.858 505.822 340.41 505.299 339.962 504.553 339.738 503.582 339.738 502.537 339.738 501.305 340 499.886 340.522L499.886 338.282ZM393.142 332.01C397.547 332.01 401.169 332.757 404.006 334.25 406.171 335.37 407.777 337.162 408.822 339.626 409.494 341.194 409.83 344.368 409.83 349.146L409.83 366.17C409.83 370.949 409.905 373.88 410.054 374.962 410.203 376.045 410.502 376.773 410.95 377.146 411.398 377.52 411.883 377.706 412.406 377.706 413.003 377.706 413.526 377.557 413.974 377.258 414.721 376.81 416.177 375.504 418.342 373.338L418.342 376.362C414.31 381.813 410.427 384.538 406.694 384.538 404.902 384.538 403.483 383.922 402.438 382.69 401.393 381.458 400.833 379.349 400.758 376.362 395.606 380.32 392.395 382.634 391.126 383.306 389.11 384.202 386.982 384.65 384.742 384.65 381.307 384.65 378.47 383.456 376.23 381.066 373.99 378.677 372.87 375.578 372.87 371.77 372.87 367.888 373.766 364.341 375.558 361.13 377.574 358.368 380.337 355.978 383.846 353.962 387.355 351.946 392.993 349.669 400.758 347.13L400.758 345.226C400.758 342.389 399.974 340.037 398.406 338.17 396.838 336.304 394.523 335.37 391.462 335.37 389.147 335.37 387.318 336.005 385.974 337.274 384.63 338.469 383.958 339.888 383.958 341.53L384.07 344.666C384.07 346.309 383.641 347.597 382.782 348.53 381.923 349.464 380.785 349.93 379.366 349.93 378.022 349.93 376.921 349.445 376.062 348.474 375.203 347.504 374.774 346.197 374.774 344.554 374.774 341.418 376.379 338.544 379.59 335.93 382.801 333.317 387.318 332.01 393.142 332.01ZM143.918 326.858 148.174 326.858 148.174 329.658C145.411 329.658 143.993 330.816 143.918 333.13L143.918 382.186C143.918 399.957 134.286 408.842 115.022 408.842 108.75 408.842 105.129 406.864 104.158 402.906L104.158 401.674C104.233 398.986 105.651 397.568 108.414 397.418L109.87 397.418C111.587 397.418 114.425 399.136 118.382 402.57 119.502 403.392 120.51 403.802 121.406 403.802 126.185 403.802 129.955 401.376 132.718 396.522 133.539 393.984 133.95 390.4 133.95 385.77L133.95 377.594C129.694 381.104 125.027 382.858 119.95 382.858 108.899 382.858 101.395 376.661 97.4381 364.266 96.8408 361.952 96.5421 359.562 96.5421 357.098 96.5421 348.885 100.201 341.605 107.518 335.258 111.625 332.645 115.881 331.338 120.286 331.338L120.51 331.338C125.961 331.338 130.441 332.944 133.95 336.154L133.95 334.362C135.443 329.658 138.766 327.157 143.918 326.858ZM90.9181 326.858 95.1741 326.858 95.1741 329.658C92.4115 329.658 90.9928 330.816 90.9181 333.13L90.9181 382.186C90.9181 399.957 81.2861 408.842 62.0221 408.842 55.7501 408.842 52.1288 406.864 51.1581 402.906L51.1581 401.674C51.2328 398.986 52.6515 397.568 55.4141 397.418L56.8701 397.418C58.5875 397.418 61.4248 399.136 65.3821 402.57 66.5021 403.392 67.5101 403.802 68.4061 403.802 73.1848 403.802 76.9555 401.376 79.7181 396.522 80.5395 393.984 80.9501 390.4 80.9501 385.77L80.9501 377.594C76.6941 381.104 72.0275 382.858 66.9501 382.858 55.8995 382.858 48.3955 376.661 44.4381 364.266 43.8408 361.952 43.5421 359.562 43.5421 357.098 43.5421 348.885 47.2008 341.605 54.5181 335.258 58.6248 332.645 62.8808 331.338 67.2861 331.338L67.5101 331.338C72.9608 331.338 77.4408 332.944 80.9501 336.154L80.9501 334.362C82.4435 329.658 85.7661 327.157 90.9181 326.858ZM485.222 325.066 486.566 325.066C489.179 325.066 491.643 325.589 493.958 326.634 494.929 327.306 495.414 328.202 495.414 329.322 495.414 330.442 495.003 331.786 494.182 333.354L469.43 385.658 467.19 385.658 449.27 343.322C448.449 341.381 447.683 339.981 446.974 339.122 446.265 338.264 445.35 337.536 444.23 336.938 443.558 336.64 442.326 336.341 440.534 336.042L440.534 334.026 464.054 334.026 464.054 336.042 462.598 336.042C461.179 336.042 460.097 336.378 459.35 337.05 458.603 337.722 458.23 338.656 458.23 339.85 458.23 341.12 458.603 342.65 459.35 344.442L470.998 372.106 489.702 334.026C490.747 332.309 491.27 330.928 491.27 329.882 491.27 329.36 490.859 328.65 490.038 327.754 489.441 327.082 488.321 326.746 486.678 326.746L485.222 326.746ZM610.19 314.538C611.683 314.538 612.971 315.08 614.054 316.162 615.137 317.245 615.678 318.57 615.678 320.138 615.678 321.632 615.137 322.938 614.054 324.058 612.971 325.178 611.683 325.738 610.19 325.738 608.622 325.738 607.297 325.178 606.214 324.058 605.131 322.938 604.59 321.632 604.59 320.138 604.59 318.57 605.131 317.245 606.214 316.162 607.297 315.08 608.622 314.538 610.19 314.538ZM510.19 314.538C511.683 314.538 512.971 315.08 514.054 316.162 515.137 317.245 515.678 318.57 515.678 320.138 515.678 321.632 515.137 322.938 514.054 324.058 512.971 325.178 511.683 325.738 510.19 325.738 508.622 325.738 507.297 325.178 506.214 324.058 505.131 322.938 504.59 321.632 504.59 320.138 504.59 318.57 505.131 317.245 506.214 316.162 507.297 315.08 508.622 314.538 510.19 314.538ZM588.174 284.522 590.638 284.522 590.638 395.85C590.638 398.986 590.862 401.077 591.31 402.122 591.758 403.168 592.281 404.026 592.878 404.698 593.475 405.37 594.894 406.192 597.134 407.162L596.686 408.394C586.606 407.498 581.566 403.317 581.566 395.85L581.566 305.466C581.566 299.866 581.435 296.413 581.174 295.106 580.913 293.8 580.502 292.904 579.942 292.418 579.382 291.933 578.691 291.69 577.87 291.69 576.899 291.69 575.667 291.989 574.174 292.586L573.278 290.682ZM432.174 284.522 434.638 284.522 434.638 395.85C434.638 398.986 434.862 401.077 435.31 402.122 435.758 403.168 436.281 404.026 436.878 404.698 437.475 405.37 438.894 406.192 441.134 407.162L440.686 408.394C430.606 407.498 425.566 403.317 425.566 395.85L425.566 305.466C425.566 299.866 425.435 296.413 425.174 295.106 424.913 293.8 424.502 292.904 423.942 292.418 423.382 291.933 422.691 291.69 421.87 291.69 420.899 291.69 419.667 291.989 418.174 292.586L417.278 290.682Z"
       stroke="#BFBFBF"
       stroke-linejoin="round"
       stroke-miterlimit="10"
       fill="#F2F2F2"
       fill-rule="evenodd"
       id="path40" />
  </g>
</svg>
